# xmcd
#
# Track frame offsets:
# 150
# 14246
# 35411
# 52861
# 69880
# 87226
# 104084
# 118676
# 134586
# 152735
# 169200
# 180910
# 198905
#
# Disc length: 2861 seconds
#
#
# Revision: 0
# Processed by: cddbd v1.5.1PL2 Copyright (c) Steve Scherf et al.
# Submitted via: FreeRIP 2.944 
#
DISCID=ae0b2b0d
DTITLE=Detlev Jöcker - Lieber Frühling, Lieber Sommer
DYEAR=1900
DGENRE=General Children's Music
TTITLE0=Wann Fängt Der Frühling An?
TTITLE1=Osterhäschen Peter
TTITLE2=Die Vögel Singen Wieder
TTITLE3=Liebe Sonne Scheine
TTITLE4=Weil Du Meine Mutti Bist
TTITLE5=Hallo, Kleine Biene
TTITLE6=Steig Ein, Steig Ein!
TTITLE7=Eins, Zwei, Drei, Klingelingeling
TTITLE8=Geburtstag Ist Einmal Im Jahr
TTITLE9=Ferien In Den Bergen
TTITLE10=Hey, Hey, Ho, Jetzt Ziehn Wir Los
TTITLE11=Im Wilden, Wilden Westen
TTITLE12=Ich Und Du, Du Und Ich
EXTD=
EXTT0=
EXTT1=
EXTT2=
EXTT3=
EXTT4=
EXTT5=
EXTT6=
EXTT7=
EXTT8=
EXTT9=
EXTT10=
EXTT11=
EXTT12=
PLAYORDER=
